<svg height="512pt" viewBox="-41 0 512 512" width="512pt" xmlns="http://www.w3.org/2000/svg"><path d="m430 165c0-17.601562-13.0625-32.203125-30-34.636719v-10.363281c0-18.605469-12.765625-34.28125-30-38.734375v-31.265625c0-27.570312-22.429688-50-50-50h-210c-27.570312 0-50 22.429688-50 50v31.265625c-17.234375 4.453125-30 20.128906-30 38.734375v10.363281c-16.9375 2.433594-30 17.035157-30 34.636719 0 14.230469 8.542969 26.496094 20.765625 31.960938 0 0 29.351563 244.570312 29.363281 244.632812 3.164063 19.625 13.242188 37.53125 28.378906 50.417969 15.132813 12.890625 34.414063 19.988281 54.292969 19.988281h164.398438c19.878906 0 39.160156-7.097656 54.292969-19.988281 15.136718-12.886719 25.214843-30.792969 28.378906-50.417969.011718-.058594.046875-.324219.058594-.402344l29.304687-244.226562c12.222656-5.46875 20.765625-17.734375 20.765625-31.964844zm-350-115c0-16.542969 13.457031-30 30-30h210c13.035156 0 24.152344 8.359375 28.28125 20h-68.28125c-5.511719 0-10 4.488281-10 10s4.488281 10 10 10h70v20h-270zm-30 70c0-11.027344 8.972656-20 20-20h290c11.027344 0 20 8.972656 20 20v10h-330zm247.199219 372h-164.398438c-27.386719 0-50.992187-17.085938-59.945312-42h284.285156c-8.953125 24.914062-32.554687 42-59.941406 42zm63.929687-62h-292.257812l-27.597656-230h347.453124zm33.871094-250h-360c-8.269531 0-15-6.730469-15-15s6.730469-15 15-15h360c8.269531 0 15 6.730469 15 15s-6.730469 15-15 15zm0 0"/><path d="m240 40c-5.511719 0-10 4.488281-10 10s4.488281 10 10 10 10-4.488281 10-10-4.488281-10-10-10zm0 0"/><path d="m81 250h60c5.523438 0 10-4.476562 10-10s-4.476562-10-10-10h-60c-5.523438 0-10 4.476562-10 10s4.476562 10 10 10zm0 0"/><path d="m195 250h40c5.523438 0 10-4.476562 10-10s-4.476562-10-10-10h-40c-5.523438 0-10 4.476562-10 10s4.476562 10 10 10zm0 0"/><path d="m289 250h60c5.523438 0 10-4.476562 10-10s-4.476562-10-10-10h-60c-5.523438 0-10 4.476562-10 10s4.476562 10 10 10zm0 0"/><path d="m141 280h-50c-5.523438 0-10 4.476562-10 10s4.476562 10 10 10h50c5.523438 0 10-4.476562 10-10s-4.476562-10-10-10zm0 0"/><path d="m195 300h40c5.523438 0 10-4.476562 10-10s-4.476562-10-10-10h-40c-5.523438 0-10 4.476562-10 10s4.476562 10 10 10zm0 0"/><path d="m289 300h50c5.523438 0 10-4.476562 10-10s-4.476562-10-10-10h-50c-5.523438 0-10 4.476562-10 10s4.476562 10 10 10zm0 0"/><path d="m141 330h-40c-5.523438 0-10 4.476562-10 10s4.476562 10 10 10h40c5.523438 0 10-4.476562 10-10s-4.476562-10-10-10zm0 0"/><path d="m195 350h40c5.523438 0 10-4.476562 10-10s-4.476562-10-10-10h-40c-5.523438 0-10 4.476562-10 10s4.476562 10 10 10zm0 0"/><path d="m289 350h40c5.523438 0 10-4.476562 10-10s-4.476562-10-10-10h-40c-5.523438 0-10 4.476562-10 10s4.476562 10 10 10zm0 0"/><path d="m141 380h-30c-5.523438 0-10 4.476562-10 10s4.476562 10 10 10h30c5.523438 0 10-4.476562 10-10s-4.476562-10-10-10zm0 0"/><path d="m195 400h40c5.523438 0 10-4.476562 10-10s-4.476562-10-10-10h-40c-5.523438 0-10 4.476562-10 10s4.476562 10 10 10zm0 0"/><path d="m289 400h30c5.523438 0 10-4.476562 10-10s-4.476562-10-10-10h-30c-5.523438 0-10 4.476562-10 10s4.476562 10 10 10zm0 0"/></svg>