<svg width="30" height="30" viewBox="0 0 30 30" fill="none" xmlns="http://www.w3.org/2000/svg">
<path d="M15 0.599976C7.04698 0.599976 0.599976 7.04698 0.599976 15C0.599976 22.953 7.04698 29.4 15 29.4C22.953 29.4 29.4 22.953 29.4 15C29.4 7.04698 22.953 0.599976 15 0.599976ZM20.538 16.8465C20.538 16.8465 21.8115 18.1035 22.125 18.687C22.134 18.699 22.1385 18.711 22.1415 18.717C22.269 18.9315 22.299 19.098 22.236 19.2225C22.131 19.4295 21.771 19.5315 21.648 19.5405H19.398C19.242 19.5405 18.915 19.5 18.519 19.227C18.2145 19.014 17.9145 18.6645 17.622 18.324C17.1855 17.817 16.8075 17.379 16.4265 17.379C16.3781 17.3789 16.33 17.3865 16.284 17.4015C15.996 17.4945 15.627 17.9055 15.627 19.0005C15.627 19.3425 15.357 19.539 15.1665 19.539H14.136C13.785 19.539 11.9565 19.416 10.3365 17.7075C8.35348 15.615 6.56848 11.418 6.55348 11.379C6.44098 11.1075 6.67348 10.962 6.92698 10.962H9.19948C9.50248 10.962 9.60148 11.1465 9.67048 11.31C9.75148 11.5005 10.0485 12.258 10.536 13.11C11.3265 14.499 11.811 15.063 12.1995 15.063C12.2723 15.0621 12.3439 15.0436 12.408 15.009C12.915 14.727 12.8205 12.9195 12.798 12.5445C12.798 12.474 12.7965 11.736 12.537 11.382C12.351 11.1255 12.0345 11.028 11.8425 10.992C11.9202 10.8847 12.0226 10.7978 12.141 10.7385C12.489 10.5645 13.116 10.539 13.7385 10.539H14.085C14.76 10.548 14.934 10.5915 15.1785 10.653C15.6735 10.7715 15.684 11.091 15.6405 12.1845C15.627 12.495 15.6135 12.846 15.6135 13.26C15.6135 13.35 15.609 13.446 15.609 13.548C15.594 14.1045 15.576 14.736 15.969 14.9955C16.0202 15.0276 16.0795 15.0448 16.14 15.045C16.2765 15.045 16.6875 15.045 17.8005 13.1355C18.1437 12.5209 18.442 11.8822 18.693 11.2245C18.7155 11.1855 18.7815 11.0655 18.8595 11.019C18.917 10.9896 18.9809 10.9747 19.0455 10.9755H21.717C22.008 10.9755 22.2075 11.019 22.245 11.1315C22.311 11.31 22.233 11.8545 21.0135 13.506L20.469 14.2245C19.3635 15.6735 19.3635 15.747 20.538 16.8465V16.8465Z" fill="#2787F5"/>
</svg>
