<svg width="30" height="24" viewBox="0 0 30 24" fill="none" xmlns="http://www.w3.org/2000/svg">
<path fill-rule="evenodd" clip-rule="evenodd" d="M5.5605 0.4395C5.2776 0.166263 4.89869 0.0150717 4.5054 0.0184893C4.1121 0.0219069 3.73588 0.17966 3.45777 0.457773C3.17966 0.735885 3.02191 1.1121 3.01849 1.5054C3.01507 1.89869 3.16626 2.2776 3.4395 2.5605L24.4395 23.5605C24.7224 23.8337 25.1013 23.9849 25.4946 23.9815C25.8879 23.9781 26.2641 23.8203 26.5422 23.5422C26.8203 23.2641 26.9781 22.8879 26.9815 22.4946C26.9849 22.1013 26.8337 21.7224 26.5605 21.4395L24.351 19.23C26.6873 17.3672 28.4149 14.8499 29.313 12C27.402 5.9145 21.717 1.5 15 1.5C12.6486 1.49681 10.3298 2.04878 8.232 3.111L5.562 0.4395H5.5605ZM11.952 6.8295L14.223 9.102C14.7316 8.96693 15.2668 8.96782 15.775 9.1046C16.2832 9.24137 16.7465 9.50922 17.1187 9.88135C17.4908 10.2535 17.7586 10.7168 17.8954 11.225C18.0322 11.7332 18.0331 12.2684 17.898 12.777L20.169 15.048C20.8455 13.902 21.1218 12.5637 20.9545 11.2435C20.7872 9.92334 20.1857 8.69624 19.2447 7.75527C18.3038 6.81429 17.0767 6.21284 15.7565 6.04552C14.4363 5.87821 13.098 6.15452 11.952 6.831V6.8295Z" fill="black"/>
<path d="M18.681 22.0455L14.625 17.988C13.1665 17.8966 11.7916 17.2761 10.7581 16.243C9.72464 15.2098 9.10377 13.835 9.01201 12.3765L3.50251 6.867C2.23533 8.37603 1.27854 10.1204 0.687012 12C2.59801 18.0855 8.28451 22.5 15 22.5C16.2705 22.5 17.5035 22.3425 18.681 22.0455Z" fill="black"/>
</svg>
