<svg width="29" height="21" viewBox="0 0 29 21" fill="none" xmlns="http://www.w3.org/2000/svg">
<path d="M14.313 13.5C15.1086 13.5 15.8717 13.1839 16.4343 12.6213C16.9969 12.0587 17.313 11.2956 17.313 10.5C17.313 9.70435 16.9969 8.94129 16.4343 8.37868C15.8717 7.81607 15.1086 7.5 14.313 7.5C13.5173 7.5 12.7543 7.81607 12.1917 8.37868C11.6291 8.94129 11.313 9.70435 11.313 10.5C11.313 11.2956 11.6291 12.0587 12.1917 12.6213C12.7543 13.1839 13.5173 13.5 14.313 13.5Z" fill="black"/>
<path fill-rule="evenodd" clip-rule="evenodd" d="M0 10.5C1.911 4.4145 7.596 0 14.313 0C21.03 0 26.715 4.4145 28.626 10.5C26.715 16.5855 21.03 21 14.313 21C7.596 21 1.911 16.5855 0 10.5ZM20.313 10.5C20.313 12.0913 19.6809 13.6174 18.5556 14.7426C17.4304 15.8679 15.9043 16.5 14.313 16.5C12.7217 16.5 11.1956 15.8679 10.0704 14.7426C8.94514 13.6174 8.313 12.0913 8.313 10.5C8.313 8.9087 8.94514 7.38258 10.0704 6.25736C11.1956 5.13214 12.7217 4.5 14.313 4.5C15.9043 4.5 17.4304 5.13214 18.5556 6.25736C19.6809 7.38258 20.313 8.9087 20.313 10.5V10.5Z" fill="black"/>
</svg>
