<svg width="26" height="30" viewBox="0 0 26 30" fill="none" xmlns="http://www.w3.org/2000/svg">
<path d="M10.3873 27.6923L12.1181 19.6154L10.3873 17.3077L8.07961 16.1538L10.3873 27.6923ZM15.0027 27.6923L17.3104 16.1538L15.0027 17.3077L13.2719 19.6154L15.0027 27.6923ZM17.8873 9.48317C17.8633 9.4351 17.8392 9.39904 17.8152 9.375C17.695 9.27885 17.1181 9.23077 16.0844 9.23077C15.2431 9.23077 14.2395 9.34495 13.0736 9.57332C12.9895 9.59736 12.8633 9.60937 12.695 9.60937C12.5267 9.60937 12.4005 9.59736 12.3164 9.57332C11.1505 9.34495 10.1469 9.23077 9.30557 9.23077C8.27192 9.23077 7.69499 9.27885 7.5748 9.375C7.55076 9.39904 7.52672 9.4351 7.50269 9.48317C7.52672 9.69952 7.55076 9.86178 7.5748 9.96995C7.59884 10.006 7.64391 10.0451 7.71002 10.0871C7.77612 10.1292 7.8212 10.1923 7.84523 10.2764C7.86927 10.3245 7.91434 10.4477 7.98045 10.646C8.04656 10.8444 8.08862 10.9675 8.10665 11.0156C8.12468 11.0637 8.16975 11.1659 8.24187 11.3221C8.31398 11.4784 8.36507 11.5805 8.39511 11.6286C8.42516 11.6767 8.47925 11.7608 8.55737 11.881C8.6355 12.0012 8.70761 12.0823 8.77372 12.1244C8.83982 12.1665 8.92396 12.2236 9.02612 12.2957C9.12829 12.3678 9.23345 12.4159 9.34163 12.4399C9.4498 12.4639 9.573 12.488 9.71122 12.512C9.84944 12.5361 9.99668 12.5481 10.1529 12.5481C10.5856 12.5481 10.9402 12.473 11.2166 12.3227C11.4931 12.1725 11.6884 11.9922 11.8026 11.7819C11.9167 11.5715 12.0039 11.3642 12.064 11.1599C12.1241 10.9555 12.1932 10.7782 12.2713 10.628C12.3494 10.4778 12.4546 10.4026 12.5868 10.4026H12.8032C12.9354 10.4026 13.0405 10.4778 13.1187 10.628C13.1968 10.7782 13.2659 10.9555 13.326 11.1599C13.3861 11.3642 13.4732 11.5715 13.5874 11.7819C13.7016 11.9922 13.8969 12.1725 14.1734 12.3227C14.4498 12.473 14.8044 12.5481 15.2371 12.5481C15.3933 12.5481 15.5405 12.5361 15.6788 12.512C15.817 12.488 15.9402 12.4639 16.0484 12.4399C16.1565 12.4159 16.2617 12.3678 16.3639 12.2957C16.466 12.2236 16.5502 12.1665 16.6163 12.1244C16.6824 12.0823 16.7545 12.0012 16.8326 11.881C16.9107 11.7608 16.9648 11.6767 16.9949 11.6286C17.0249 11.5805 17.076 11.4784 17.1481 11.3221C17.2202 11.1659 17.2653 11.0637 17.2833 11.0156C17.3014 10.9675 17.3434 10.8444 17.4095 10.646C17.4756 10.4477 17.5207 10.3245 17.5448 10.2764C17.5688 10.1923 17.6139 10.1292 17.68 10.0871C17.7461 10.0451 17.7911 10.006 17.8152 9.96995C17.8392 9.86178 17.8633 9.69952 17.8873 9.48317ZM25.3873 25.3305C25.3873 26.7849 24.9486 27.9267 24.0712 28.756C23.1938 29.5853 22.0279 30 20.5736 30H4.81639C3.36206 30 2.1962 29.5853 1.31879 28.756C0.441387 27.9267 0.00268555 26.7849 0.00268555 25.3305C0.00268555 24.5974 0.0297288 23.8882 0.0838154 23.2031C0.137902 22.518 0.252085 21.7638 0.426363 20.9405C0.600642 20.1172 0.826003 19.375 1.10245 18.7139C1.37889 18.0529 1.7605 17.4309 2.24728 16.848C2.73406 16.265 3.29595 15.8173 3.93297 15.5048L2.31038 11.5385H6.16855C5.90413 10.7692 5.77192 10 5.77192 9.23077C5.77192 9.08654 5.78394 8.89423 5.80797 8.65385C3.47624 8.17308 2.31038 7.59615 2.31038 6.92308C2.31038 6.23798 3.5724 5.64303 6.09644 5.13822C6.30076 4.39303 6.61026 3.58774 7.02492 2.72236C7.43958 1.85697 7.86326 1.17187 8.29595 0.667067C8.68057 0.222356 9.1373 0 9.66615 0C10.0267 0 10.5315 0.186298 11.1806 0.558894C11.8296 0.93149 12.3344 1.11779 12.695 1.11779C13.0556 1.11779 13.5604 0.93149 14.2094 0.558894C14.8585 0.186298 15.3633 0 15.7238 0C16.2527 0 16.7094 0.222356 17.094 0.667067C17.5267 1.17187 17.9504 1.85697 18.3651 2.72236C18.7797 3.58774 19.0892 4.39303 19.2936 5.13822C21.8176 5.64303 23.0796 6.23798 23.0796 6.92308C23.0796 7.59615 21.9137 8.17308 19.582 8.65385C19.6661 9.6274 19.546 10.5889 19.2214 11.5385H23.0796L21.6012 15.595C22.3585 15.9916 23.0045 16.5715 23.5393 17.3347C24.0742 18.098 24.4678 18.9603 24.7202 19.9219C24.9726 20.8834 25.1469 21.7939 25.2431 22.6532C25.3392 23.5126 25.3873 24.405 25.3873 25.3305Z" fill="black"/>
</svg>
