<svg width="26" height="26" viewBox="0 0 26 26" fill="none" xmlns="http://www.w3.org/2000/svg">
<path d="M13 5.5C13.3315 5.5 13.6495 5.3683 13.8839 5.13388C14.1183 4.89946 14.25 4.58152 14.25 4.25V1.75C14.25 1.41848 14.1183 1.10054 13.8839 0.866116C13.6495 0.631696 13.3315 0.5 13 0.5C12.6685 0.5 12.3505 0.631696 12.1161 0.866116C11.8817 1.10054 11.75 1.41848 11.75 1.75V4.25C11.75 4.58152 11.8817 4.89946 12.1161 5.13388C12.3505 5.3683 12.6685 5.5 13 5.5ZM24.25 11.75H21.75C21.4185 11.75 21.1005 11.8817 20.8661 12.1161C20.6317 12.3505 20.5 12.6685 20.5 13C20.5 13.3315 20.6317 13.6495 20.8661 13.8839C21.1005 14.1183 21.4185 14.25 21.75 14.25H24.25C24.5815 14.25 24.8995 14.1183 25.1339 13.8839C25.3683 13.6495 25.5 13.3315 25.5 13C25.5 12.6685 25.3683 12.3505 25.1339 12.1161C24.8995 11.8817 24.5815 11.75 24.25 11.75ZM5.5 13C5.5 12.6685 5.3683 12.3505 5.13388 12.1161C4.89946 11.8817 4.58152 11.75 4.25 11.75H1.75C1.41848 11.75 1.10054 11.8817 0.866116 12.1161C0.631696 12.3505 0.5 12.6685 0.5 13C0.5 13.3315 0.631696 13.6495 0.866116 13.8839C1.10054 14.1183 1.41848 14.25 1.75 14.25H4.25C4.58152 14.25 4.89946 14.1183 5.13388 13.8839C5.3683 13.6495 5.5 13.3315 5.5 13ZM5.775 4.25C5.53133 4.01959 5.20612 3.89542 4.87089 3.9048C4.53567 3.91417 4.21791 4.05633 3.9875 4.3C3.75709 4.54367 3.63292 4.86888 3.6423 5.20411C3.65167 5.53933 3.79383 5.85709 4.0375 6.0875L5.8375 7.825C5.95829 7.94164 6.10135 8.03274 6.25813 8.09288C6.4149 8.15301 6.58219 8.18094 6.75 8.175C6.91838 8.17436 7.0849 8.1397 7.23955 8.07311C7.39421 8.00653 7.53382 7.90938 7.65 7.7875C7.88281 7.5533 8.01349 7.23648 8.01349 6.90625C8.01349 6.57602 7.88281 6.2592 7.65 6.025L5.775 4.25ZM19.25 8.175C19.5718 8.17372 19.8808 8.04835 20.1125 7.825L21.9125 6.0875C22.1321 5.85806 22.2561 5.55365 22.2594 5.23609C22.2626 4.91852 22.1449 4.61162 21.9301 4.37771C21.7153 4.1438 21.4195 4.00043 21.1028 3.97671C20.7861 3.95299 20.4723 4.0507 20.225 4.25L18.425 6.025C18.1922 6.2592 18.0615 6.57602 18.0615 6.90625C18.0615 7.23648 18.1922 7.5533 18.425 7.7875C18.6414 8.0159 18.936 8.15427 19.25 8.175ZM13 20.5C12.6685 20.5 12.3505 20.6317 12.1161 20.8661C11.8817 21.1005 11.75 21.4185 11.75 21.75V24.25C11.75 24.5815 11.8817 24.8995 12.1161 25.1339C12.3505 25.3683 12.6685 25.5 13 25.5C13.3315 25.5 13.6495 25.3683 13.8839 25.1339C14.1183 24.8995 14.25 24.5815 14.25 24.25V21.75C14.25 21.4185 14.1183 21.1005 13.8839 20.8661C13.6495 20.6317 13.3315 20.5 13 20.5ZM20.1625 18.175C19.9238 17.9446 19.6034 17.8184 19.2717 17.8243C18.9399 17.8302 18.6242 17.9676 18.3938 18.2063C18.1633 18.4449 18.0372 18.7654 18.0431 19.0971C18.0489 19.4288 18.1863 19.7446 18.425 19.975L20.225 21.75C20.4567 21.9734 20.7657 22.0987 21.0875 22.1C21.255 22.101 21.421 22.0683 21.5756 22.0039C21.7302 21.9394 21.8703 21.8446 21.9875 21.725C22.1047 21.6088 22.1977 21.4705 22.2611 21.3182C22.3246 21.1659 22.3572 21.0025 22.3572 20.8375C22.3572 20.6725 22.3246 20.5091 22.2611 20.3568C22.1977 20.2045 22.1047 20.0662 21.9875 19.95L20.1625 18.175ZM5.8375 18.175L4.0375 19.9125C3.92034 20.0287 3.82735 20.167 3.76389 20.3193C3.70043 20.4716 3.66775 20.635 3.66775 20.8C3.66775 20.965 3.70043 21.1284 3.76389 21.2807C3.82735 21.433 3.92034 21.5713 4.0375 21.6875C4.15474 21.8071 4.29482 21.9019 4.44943 21.9664C4.60404 22.0308 4.77001 22.0635 4.9375 22.0625C5.24564 22.0651 5.5439 21.9538 5.775 21.75L7.575 20.0125C7.81369 19.7821 7.95108 19.4663 7.95695 19.1346C7.96281 18.8029 7.83666 18.4824 7.60625 18.2437C7.37584 18.0051 7.06005 17.8677 6.72835 17.8618C6.39664 17.8559 6.07619 17.9821 5.8375 18.2125V18.175ZM13 8C12.0111 8 11.0444 8.29325 10.2221 8.84265C9.3999 9.39206 8.75904 10.173 8.3806 11.0866C8.00216 12.0002 7.90315 13.0055 8.09607 13.9755C8.289 14.9454 8.7652 15.8363 9.46447 16.5355C10.1637 17.2348 11.0546 17.711 12.0245 17.9039C12.9945 18.0969 13.9998 17.9978 14.9134 17.6194C15.827 17.241 16.6079 16.6001 17.1573 15.7779C17.7068 14.9556 18 13.9889 18 13C18 11.6739 17.4732 10.4021 16.5355 9.46447C15.5979 8.52678 14.3261 8 13 8V8Z" fill="black"/>
</svg>
