<svg width="126" height="30" viewBox="0 0 126 30" fill="none" xmlns="http://www.w3.org/2000/svg">
<path d="M8.16 23.27L0.3 9.89H5.28L8.34 16.13L11.04 9.89H15.72L8.28 23.27H8.16Z" fill="#F78CB6"/>
<path d="M23.0454 23.27C21.9654 23.27 20.9554 23.08 20.0154 22.7C19.0954 22.32 18.3154 21.79 17.6754 21.11L19.4154 18.8C20.0554 19.38 20.6454 19.8 21.1854 20.06C21.7454 20.3 22.2454 20.42 22.6854 20.42C23.2054 20.42 23.6354 20.34 23.9754 20.18C24.3154 20.02 24.4854 19.76 24.4854 19.4C24.4854 19.06 24.3454 18.79 24.0654 18.59C23.8054 18.39 23.4654 18.23 23.0454 18.11C22.6254 17.97 22.1754 17.83 21.6954 17.69C20.4954 17.31 19.6254 16.76 19.0854 16.04C18.5654 15.3 18.3054 14.5 18.3054 13.64C18.3054 12.98 18.4754 12.32 18.8154 11.66C19.1754 10.98 19.7354 10.42 20.4954 9.98C21.2754 9.52 22.2754 9.29 23.4954 9.29C24.5954 9.29 25.5254 9.4 26.2854 9.62C27.0454 9.84 27.7654 10.2 28.4454 10.7L26.8554 13.16C26.4754 12.86 26.0454 12.61 25.5654 12.41C25.1054 12.19 24.6754 12.07 24.2754 12.05C23.7354 12.03 23.3154 12.13 23.0154 12.35C22.7154 12.55 22.5654 12.79 22.5654 13.07C22.5454 13.45 22.6854 13.75 22.9854 13.97C23.3054 14.19 23.7054 14.36 24.1854 14.48C24.6654 14.6 25.1354 14.74 25.5954 14.9C26.5354 15.22 27.2854 15.68 27.8454 16.28C28.4054 16.86 28.6854 17.64 28.6854 18.62C28.6854 19.42 28.4754 20.18 28.0554 20.9C27.6554 21.6 27.0354 22.17 26.1954 22.61C25.3754 23.05 24.3254 23.27 23.0454 23.27ZM38.3234 23.36C37.1034 23.36 35.9934 23.12 34.9934 22.64C34.0134 22.14 33.2334 21.38 32.6534 20.36C32.0734 19.34 31.7834 18.04 31.7834 16.46C31.7834 14.98 32.0834 13.7 32.6834 12.62C33.2834 11.54 34.0734 10.71 35.0534 10.13C36.0334 9.53 37.0734 9.23 38.1734 9.23C39.4734 9.23 40.4534 9.44 41.1134 9.86C41.7934 10.28 42.3334 10.74 42.7334 11.24L43.0034 9.89H46.9034V23H42.7034V21.38C42.5034 21.58 42.2034 21.84 41.8034 22.16C41.4234 22.48 40.9434 22.76 40.3634 23C39.7834 23.24 39.1034 23.36 38.3234 23.36ZM39.5234 19.94C40.9834 19.94 42.0434 19.28 42.7034 17.96V14.75C42.4634 14.11 42.0434 13.6 41.4434 13.22C40.8634 12.84 40.1734 12.65 39.3734 12.65C38.4734 12.65 37.6934 12.99 37.0334 13.67C36.3734 14.33 36.0434 15.19 36.0434 16.25C36.0434 16.95 36.2034 17.58 36.5234 18.14C36.8434 18.7 37.2634 19.14 37.7834 19.46C38.3234 19.78 38.9034 19.94 39.5234 19.94ZM53.0611 4.13H57.2611V9.83H60.4411V13.1H57.2611V23H53.0611V13.1H51.0211V9.83H53.0611V4.13ZM63.2177 16.28C63.2177 14.94 63.5277 13.74 64.1477 12.68C64.7877 11.62 65.6777 10.79 66.8177 10.19C67.9577 9.57 69.2677 9.26 70.7477 9.26C72.2477 9.26 73.5477 9.57 74.6477 10.19C75.7477 10.79 76.5877 11.62 77.1677 12.68C77.7677 13.74 78.0677 14.94 78.0677 16.28C78.0677 17.62 77.7677 18.83 77.1677 19.91C76.5877 20.97 75.7477 21.81 74.6477 22.43C73.5477 23.05 72.2277 23.36 70.6877 23.36C69.2477 23.36 67.9577 23.08 66.8177 22.52C65.6977 21.96 64.8177 21.15 64.1777 20.09C63.5377 19.03 63.2177 17.76 63.2177 16.28ZM67.4477 16.31C67.4477 17.35 67.7477 18.22 68.3477 18.92C68.9477 19.6 69.7077 19.94 70.6277 19.94C71.6077 19.94 72.3877 19.6 72.9677 18.92C73.5477 18.22 73.8377 17.35 73.8377 16.31C73.8377 15.27 73.5477 14.41 72.9677 13.73C72.3877 13.03 71.6077 12.68 70.6277 12.68C69.7077 12.68 68.9477 13.03 68.3477 13.73C67.7477 14.41 67.4477 15.27 67.4477 16.31ZM85.7864 9.89L86.0864 11.99C86.5464 11.17 87.1964 10.51 88.0364 10.01C88.8764 9.51 89.8964 9.26 91.0964 9.26C92.3364 9.26 93.3664 9.63 94.1864 10.37C95.0264 11.09 95.4564 12.03 95.4764 13.19V23H91.2764V14.75C91.2564 14.17 91.0964 13.71 90.7964 13.37C90.5164 13.01 90.0364 12.83 89.3564 12.83C88.3764 12.83 87.5964 13.29 87.0164 14.21C86.4564 15.11 86.1764 16.26 86.1764 17.66V23H81.9764V9.89H85.7864ZM100.389 9.89H104.589V23H100.389V9.89ZM100.299 5.24C100.299 4.62 100.539 4.11 101.019 3.71C101.519 3.31 102.049 3.11 102.609 3.11C103.169 3.11 103.679 3.31 104.139 3.71C104.619 4.11 104.859 4.62 104.859 5.24C104.859 5.86 104.619 6.37 104.139 6.77C103.679 7.15 103.169 7.34 102.609 7.34C102.049 7.34 101.519 7.15 101.019 6.77C100.539 6.37 100.299 5.86 100.299 5.24ZM113.324 9.89L113.624 11.99C114.084 11.17 114.734 10.51 115.574 10.01C116.414 9.51 117.434 9.26 118.634 9.26C119.874 9.26 120.904 9.63 121.724 10.37C122.564 11.09 122.994 12.03 123.014 13.19V23H118.814V14.75C118.794 14.17 118.634 13.71 118.334 13.37C118.054 13.01 117.574 12.83 116.894 12.83C115.914 12.83 115.134 13.29 114.554 14.21C113.994 15.11 113.714 16.26 113.714 17.66V23H109.514V9.89H113.324Z" fill="#56597A"/>
</svg>
